PathFileType	4	(X/Y/Z)	CP4_315.1s.trc																												
DataRate	CameraRate	NumFrames	NumMarkers	Units	OrigDataRate	OrigDataStartFrame	OrigNumFrames																								
30	30	25	10	mm	30	1	9454																								
Frame#	Time	pelvis_center			manubrium			l_acromion			l_humerus_epicondyle			l_radius_styloid			l_center_hand			r_acromion			r_humerus_epicondyle			r_radius_styloid			r_center_hand		
		X1	Y1	Z1	X2	Y2	Z2	X3	Y3	Z3	X4	Y4	Z4	X5	Y5	Z5	X6	Y6	Z6	X7	Y7	Z7	X8	Y8	Z8	X9	Y9	Z9	X10	Y10	Z10
																															
1	0	-2042.999808	81.99766684	248.9970593	-1909.999569	453.9936418	302.9972975	-1879.00168	355.9976554	161.9994328	-1942.006204	123.9970393	12.99849975	-1988.006682	-95.00477128	-56.99924552	-1983.004127	-138.0026059	-42.00052942	-2022.995688	340.9946698	430.99984	-2096.999198	89.00116466	407.0018699	-2087.000715	-148.0008464	403.9999262	-2001.002937	-168.0015622	395.9992336
2	0.033333333	-2043.665888	82.1035923	249.0340311	-1909.353033	451.8801656	302.417099	-1879.343064	354.7171864	161.3436676	-1945.080971	121.6651637	12.9942541	-1992.355129	-97.35826167	-57.05634094	-1987.151135	-140.4999326	-42.64118117	-2021.052439	338.7660002	431.0701053	-2096.040071	88.32352752	407.6387025	-2086.922409	-149.3305911	403.9723009	-2040.209587	-207.2312507	406.0796347
3	0.066666667	-2043.975711	81.67242756	248.7914731	-1908.777739	450.01541	301.8167647	-1879.673611	353.7783267	160.7607619	-1947.358505	119.9621707	13.01825818	-1995.091321	-99.04902199	-57.01902717	-1990.059501	-142.9317955	-43.03566129	-2019.489806	337.1330779	431.0610783	-2095.3271	87.71623872	408.0455778	-2086.964842	-150.0722731	403.9504334	-2064.454725	-231.7826744	412.3342537
4	0.1	-2044.046067	80.20416171	248.0882126	-1908.025453	447.4293369	300.8056042	-1879.934908	352.7928197	160.0412439	-1949.082397	118.6363257	13.07290728	-1996.688607	-100.2781617	-56.75975687	-1992.640824	-146.7307879	-43.30501033	-2017.743717	335.5269998	430.8000322	-2094.726648	87.03797189	408.3454909	-2087.30533	-150.3770925	404.0258128	-2074.017229	-241.9400691	414.7691226
5	0.133333333	-2044.28707	77.29483085	246.8507883	-1906.726852	442.5275891	298.9164218	-1880.283097	351.0129527	158.8433497	-1951.122454	116.9677979	13.0435106	-1998.794099	-101.8140468	-56.25367013	-1996.338885	-152.6790894	-43.66407614	-2014.939607	332.6894871	430.1136377	-2093.803532	86.06500395	408.6889932	-2087.951157	-150.687941	404.3022967	-2077.836313	-246.196933	415.4911237
6	0.166666667	-2044.921094	72.84371941	245.0240725	-1904.75481	434.3258801	295.9090756	-1881.011336	347.8006474	156.8940155	-1954.257586	114.3457302	12.69155026	-2002.662445	-104.4387812	-55.63811471	-2001.347042	-159.5747957	-44.21355491	-2010.608458	327.7391885	428.8912075	-2092.216665	84.58774903	409.0356149	-2088.656533	-151.2281264	404.697384	-2081.481602	-249.4008915	415.5626881
7	0.2	-2045.910974	67.06413902	242.5387843	-1902.264392	422.5491549	291.6029816	-1882.18971	342.5062124	153.9321547	-1958.910072	110.0351802	11.90665441	-2008.84952	-108.7217179	-55.16391574	-2007.411684	-166.6316146	-45.08634573	-2004.555103	320.3335242	426.9408776	-2089.70361	82.34895567	409.3342417	-2089.296634	-152.1020915	405.0118614	-2085.746674	-251.9935848	414.836221
8	0.233333333	-2047.241516	60.02381919	239.4455169	-1899.466283	407.3616133	285.8846174	-1883.641115	334.636215	149.6764307	-1964.682767	103.2596936	10.99624578	-2016.890033	-114.8147312	-54.91080306	-2014.625266	-175.1366182	-46.30161703	-1996.884157	310.4489611	423.9313531	-2085.900697	78.87413691	409.4851816	-2090.012796	-153.4494124	405.1889044	-2089.980986	-253.8141315	413.1705322
9	0.266666667	-2048.954036	51.39489858	235.8458625	-1896.530761	389.4722651	278.9809582	-1885.238451	324.2804615	144.0193069	-1970.405792	93.70975618	10.50532799	-2025.092208	-123.0915806	-53.93697956	-2023.067988	-187.3218784	-47.28711119	-1988.161055	298.2777439	419.6056088	-2080.625048	73.43139977	409.3282737	-2090.902367	-155.6247728	405.1610889	-2093.837312	-255.3972165	410.785608
10	0.3	-2050.937773	41.13077607	231.7438845	-1893.654313	370.1419666	271.4488362	-1887.012146	312.0782247	137.2284252	-1975.173784	81.76265264	10.6642276	-2031.002251	-134.8649149	-50.0190131	-2031.97574	-203.9993235	-46.85178709	-1979.203934	284.3992557	414.1824822	-2074.315335	65.76055156	408.8397314	-2091.949826	-159.0554744	404.5594771	-2097.403129	-257.2984042	408.0764558
11	0.333333333	-2052.971177	30.04528821	227.2654334	-1891.089529	350.7786835	263.7480211	-1888.943358	298.7953406	129.7695817	-1978.912582	68.45082361	11.22980312	-2032.806133	-150.7790684	-41.78222458	-2039.65771	-223.1288553	-44.34427445	-1970.758071	269.9399796	408.3603266	-2067.937575	56.68217679	408.0911586	-2093.204816	-163.7567453	402.9937397	-2100.709669	-259.4412304	405.4594762
12	0.366666667	-2054.963082	19.2018267	222.753957	-1889.145638	332.3528891	255.9148773	-1890.938417	284.9928553	121.9923495	-1982.009941	54.86574782	11.81534199	-2031.72422	-168.6287966	-31.17441271	-2045.433984	-241.6666674	-40.67593226	-1963.298108	256.0100283	402.6547495	-2062.324393	47.15784135	407.0766981	-2094.772255	-169.6355971	400.3847445	-2103.682044	-261.6192503	402.923801
13	0.4	-2057.011306	9.188862847	218.5163106	-1888.044785	315.2548358	247.9328055	-1893.014056	271.1886084	114.216541	-1984.96916	41.73784804	12.09396239	-2031.423077	-184.8073778	-21.47688116	-2050.50117	-258.0229272	-37.04070936	-1957.020714	243.3046179	397.1629369	-2057.790406	37.31477983	405.7101952	-2096.612028	-177.0084759	396.7021742	-2106.54886	-264.4475474	399.7882141
14	0.433333333	-2059.236136	0.081735528	214.6183732	-1887.807243	299.5661362	240.1963596	-1895.253176	258.0575592	106.8588013	-1988.26564	29.82375321	11.8038891	-2033.821805	-197.6558665	-13.10596585	-2055.786964	-271.8847688	-33.13814059	-1951.951305	232.2458946	391.9818734	-2054.333488	27.13218188	404.0338864	-2098.325353	-185.9312304	391.7920833	-2109.725633	-268.9853087	395.3593841
15	0.466666667	-2061.652683	-8.465926093	210.9127592	-1888.36594	285.1705847	233.1483003	-1897.646797	246.0172838	100.1836469	-1992.136479	19.64657786	10.86289695	-2037.80525	-207.7551462	-4.197422416	-2060.816913	-283.3339197	-27.90230115	-1947.995258	222.7129877	387.1882811	-2051.773125	17.14900714	402.3088459	-2099.536987	-195.5683809	385.7733709	-2113.595122	-275.3830402	389.8788696
16	0.5	-2064.24037	-16.79366745	207.343455	-1889.607661	271.9932125	226.8236467	-1900.155717	235.0457045	94.14533699	-1996.457045	11.01889044	9.457676294	-2041.561571	-215.9967957	5.923715542	-2064.844523	-292.516039	-21.18986986	-1945.030101	214.0862102	382.6420675	-2049.834188	8.096484789	400.7387391	-2100.701501	-204.8455352	379.388688	-2118.765269	-282.6741538	384.7416675
17	0.533333333	-2066.995366	-24.79892173	203.9613492	-1891.373841	260.2349259	221.07726	-1902.875353	225.0617848	88.53756548	-2001.12611	3.470682419	7.7547549	-2044.305495	-222.877112	16.17587231	-2067.70118	-299.6125047	-13.85954876	-1943.022277	205.901368	378.2534132	-2048.417353	0.420192145	399.2940814	-2102.210504	-213.198544	373.3318828	-2124.721856	-289.9691895	381.0051844
18	0.566666667	-2069.873655	-32.32902386	200.6251788	-1893.596367	249.9465873	215.855035	-1906.080426	215.9192833	83.22842657	-2006.480553	-3.599841211	5.691338393	-2046.971526	-228.9765915	24.78864392	-2069.985763	-305.4065741	-7.185219927	-1941.980298	197.954956	374.0583594	-2047.57549	-6.111837276	397.7901624	-2101.166978	-220.6390834	366.3699546	-2125.337487	-297.0237154	376.0306273
19	0.6	-2072.87457	-39.50167945	197.2322209	-1896.3357	240.8078153	211.2029865	-1910.094027	207.2666517	78.2657339	-2012.796545	-10.89548213	3.356472344	-2051.743985	-235.1481166	29.66176403	-2072.802874	-311.2441851	-2.828021035	-1941.910687	190.1331238	369.9372382	-2047.317157	-12.37470524	395.9918865	-2091.408409	-227.4719907	355.4630546	-2109.29348	-302.6268699	362.7496651
20	0.633333333	-2076.208049	-46.51587115	194.0202624	-1899.706694	232.5286397	207.1708966	-1915.074708	198.6882388	73.66087899	-2019.80713	-18.78201982	1.097274604	-2059.905752	-242.168303	29.47035993	-2076.82228	-318.0512161	-2.025236077	-1942.96912	182.3345293	365.6801412	-2047.685988	-19.07260966	393.8113013	-2070.713516	-233.8420094	339.8497489	-2072.903879	-303.6731136	336.886179
21	0.666666667	-2080.183726	-53.64727851	191.1914541	-1903.97383	224.7169987	203.5938467	-1920.98321	189.7988637	69.20660762	-2027.22808	-27.44377973	-1.024372432	-2070.556542	-250.391671	24.9804154	-2081.813521	-326.0280944	-4.339733738	-1945.472092	174.1952874	361.2909137	-2048.947739	-26.41869925	391.3709794	-2044.720749	-239.660499	322.6955426	-2027.897411	-299.0866635	304.3333746
22	0.7	-2084.832039	-61.20245362	188.6209566	-1909.55608	216.6873674	200.2172002	-1927.718261	180.4623277	64.7115998	-2035.022796	-36.99018314	-3.32377711	-2081.77981	-259.5303301	18.32426218	-2087.18987	-334.9893496	-8.267102436	-1949.544976	165.3843072	356.9809825	-2051.576257	-34.63116413	388.7742921	-2020.602884	-244.8580464	307.0992976	-1989.269718	-292.8270997	275.8841185
23	0.733333333	-2089.871409	-69.26875285	186.1879391	-1916.632229	208.0717575	197.0056207	-1935.297382	170.7803485	60.25527669	-2042.966913	-47.00767852	-5.931221835	-2092.102262	-268.8936043	11.35466272	-2092.303062	-344.4124452	-12.64881601	-1955.094863	156.101021	352.9472246	-2055.838407	-43.96842771	385.9996042	-2001.825308	-249.1536786	293.8112383	-1962.496622	-289.2733267	256.2748616
24	0.766666667	-2095.166267	-77.66829426	184.0060447	-1925.075094	199.0399463	193.968284	-1943.975324	160.6923355	56.0077219	-2050.738254	-56.77992771	-8.642778576	-2100.814923	-278.1893722	4.855954357	-2096.301587	-353.4910933	-17.02428134	-1962.251104	146.6336218	349.21349	-2061.623265	-54.52249223	383.0329798	-1988.867522	-252.0576851	282.8191562	-1945.17567	-288.7625892	243.2010092
25	0.8	-2100.850342	-86.09340044	182.1773565	-1934.843585	189.930399	190.9847073	-1953.984121	150.2151219	51.95036959	-2058.285938	-65.87030457	-11.34510894	-2107.753918	-287.4769624	-1.20211422	-2098.607101	-361.5499539	-21.33695279	-1971.159571	137.1502642	345.6583004	-2068.77877	-66.23047763	379.9543438	-1980.113714	-253.4290424	273.9785901	-1933.320828	-289.3853612	233.3782367
